<svg xmlns="http://www.w3.org/2000/svg" xmlns:svg="http://www.w3.org/2000/svg" id="svg2" width="35" height="200" version="1.1"><defs id="defs4"><filter id="filter4154" width="1.264" height="1.042" x="-.132" y="-.021" color-interpolation-filters="sRGB"><feGaussianBlur id="feGaussianBlur4156" stdDeviation="1.65"/></filter></defs><metadata id="metadata7"/><g id="layer1" transform="translate(0,-852.36218)"><path id="rect4694-5" fill="#000" fill-opacity=".44" fill-rule="nonzero" stroke="none" stroke-dasharray="none" stroke-dashoffset="0" stroke-linecap="butt" stroke-linejoin="miter" stroke-miterlimit="4" stroke-opacity="1" stroke-width="2" d="m 7.2000008,858.36215 27.9999992,0 0,190.00005 -27.9999992,0 c -1.108,0 -2,-0.892 -2,-2 l 0,-186.00005 c 0,-1.108 0.892,-2 2,-2 z" clip-rule="nonzero" color="#000" color-interpolation="sRGB" color-interpolation-filters="linearRGB" color-rendering="auto" display="inline" enable-background="accumulate" filter="url(#filter4154)" image-rendering="auto" opacity=".9" overflow="visible" shape-rendering="auto" text-rendering="auto" visibility="visible" style="isolation:auto;mix-blend-mode:normal;solid-color:#000;solid-opacity:1"/><path id="rect4694" fill="#4285F4" fill-opacity="1" fill-rule="nonzero" stroke="none" stroke-dasharray="none" stroke-dashoffset="0" stroke-linecap="butt" stroke-linejoin="miter" stroke-miterlimit="4" stroke-opacity="1" stroke-width="2" d="m 7,857.36218 28,0 0,190.00002 -28,0 c -1.108,0 -2,-0.892 -2,-2 L 5,859.36218 c 0,-1.108 0.892,-2 2,-2 z" clip-rule="nonzero" color="#000" color-interpolation="sRGB" color-interpolation-filters="linearRGB" color-rendering="auto" display="inline" enable-background="accumulate" image-rendering="auto" opacity="1" overflow="visible" shape-rendering="auto" text-rendering="auto" visibility="visible" style="isolation:auto;mix-blend-mode:normal;solid-color:#000;solid-opacity:1"/><path id="rect4804" fill="#eceff1" fill-opacity="1" fill-rule="nonzero" stroke="none" stroke-dasharray="none" stroke-dashoffset="0" stroke-linecap="round" stroke-linejoin="miter" stroke-miterlimit="4" stroke-opacity="1" stroke-width="2" d="m 18,94 c -0.554,0 -1,0.446 -1,1 l 0,4 -4,0 c -0.554,0 -1,0.446 -1,1 0,0.554 0.446,1 1,1 l 4,0 0,4 c 0,0.554 0.446,1 1,1 0.554,0 1,-0.446 1,-1 l 0,-4 4,0 c 0.554,0 1,-0.446 1,-1 0,-0.554 -0.446,-1 -1,-1 l -4,0 0,-4 c 0,-0.554 -0.446,-1 -1,-1 z m 8,6 a 8,8 0 0 1 -8,8 8,8 0 0 1 -8,-8 8,8 0 0 1 8,-8 8,8 0 0 1 8,8 z" clip-rule="nonzero" color="#000" color-interpolation="sRGB" color-interpolation-filters="linearRGB" color-rendering="auto" display="inline" enable-background="accumulate" image-rendering="auto" opacity="1" overflow="visible" shape-rendering="auto" text-rendering="auto" transform="translate(0,852.36218)" visibility="visible" style="isolation:auto;mix-blend-mode:normal;solid-color:#000;solid-opacity:1"/></g></svg>