<svg xmlns="http://www.w3.org/2000/svg" xmlns:svg="http://www.w3.org/2000/svg" id="svg2" width="400" height="120" version="1.1"><metadata id="metadata7"/><g id="layer1" transform="translate(0,-932.36218)"><path color="#000" style="isolation:auto;mix-blend-mode:normal;solid-color:#000;solid-opacity:1" id="rect4142" fill="#fbfbfb" fill-opacity="1" fill-rule="evenodd" stroke="#000" stroke-dasharray="none" stroke-dashoffset="0" stroke-linecap="round" stroke-linejoin="miter" stroke-miterlimit="4" stroke-opacity=".137" stroke-width="2" d="m 12,942.36218 376,0 c 1.108,0 2,0.892 2,2 l 0,108.00002 -380,0 0,-108.00002 c 0,-1.108 0.892,-2 2,-2 z" clip-rule="nonzero" color-interpolation="sRGB" color-interpolation-filters="linearRGB" color-rendering="auto" display="inline" enable-background="accumulate" image-rendering="auto" opacity="1" overflow="visible" paint-order="stroke fill markers" shape-rendering="auto" text-rendering="auto" visibility="visible"/><path id="path3222" fill="#565656" fill-opacity="1" stroke="none" stroke-width="1" d="m 200,964.36214 c -4.41828,0 -8,3.58172 -8,8 h -16 v 4 H 193.07812 200 206.91408 224 v -4 h -16 c 0,-4.41828 -3.58172,-8 -8,-8 z m 0,4 c 2.20914,1e-5 3.99999,1.79086 4,4 h -8 c 1e-5,-2.20914 1.79086,-3.99999 4,-4 z m -20,12 v 2 2 6 21.99996 c 0,4.4321 3.56792,8.0001 8,8.0001 h 24 c 4.43208,0 8,-3.568 8,-8.0001 v -23.99996 -4 -2 -2 h -2 -26 -4 -6 z m 4,4 h 4 4 24 v 27.99996 c 0,2.2161 -1.78392,4.0001 -4,4.0001 h -24 c -2.21608,0 -4,-1.784 -4,-4.0001 z" class="ColorScheme-Text"/></g></svg>